<svg xmlns="http://www.w3.org/2000/svg" width="14.018" height="16.196" viewBox="0 0 14.018 16.196"><defs><style>.a{fill:#ff543f;}</style></defs><path class="a" d="M14.015,15.664,12.784,3.942A.482.482,0,0,0,12.3,3.51H9.991V2.983a2.982,2.982,0,0,0-5.964,0V3.51H1.713a.482.482,0,0,0-.479.432L0,15.664a.482.482,0,0,0,.479.532H13.535a.482.482,0,0,0,.48-.532ZM4.99,2.983a2.018,2.018,0,0,1,4.036,0V3.51H4.99ZM1.017,15.232,2.147,4.474h1.88V5.536a.482.482,0,1,0,.964,0V4.474H9.027V5.536a.482.482,0,1,0,.964,0V4.474h1.88L13,15.232Zm0,0" transform="translate(0 0)"/></svg>